inDegrees=no
num_controls=7
num_derivatives=13
num_iterations=92
num_multipliers=7
num_parameters=0
num_slacks=7
num_states=26
objective=0.431029
objective_accelerations=0.050634
objective_balance=0.007149
objective_effort=0.031779
objective_height=0.340304
objective_ligament=0.001163
solver_duration=1184.704377
status=Solve_Succeeded
success=true
DataType=double
version=3
OpenSimVersion=4.5
endheader
time	/jointset/ground_pelvis/pelvis_tilt/value	/jointset/ground_pelvis/pelvis_tx/value	/jointset/ground_pelvis/pelvis_ty/value	/jointset/hip_l/hip_flexion_l/value	/jointset/hip_l/hip_adduction_l/value	/jointset/hip_l/hip_rotation_l/value	/jointset/back/lumbar_extension/value	/jointset/patellofemoral_l/patellar_flexion_l/value	/jointset/knee_l/knee_flexion_l/value	/jointset/knee_l/knee_adduction_l/value	/jointset/knee_l/knee_rotation_l/value	/jointset/ankle_l/ankle_angle_l/value	/jointset/subtalar_l/subtalar_angle_l/value	/jointset/ground_pelvis/pelvis_tilt/speed	/jointset/ground_pelvis/pelvis_tx/speed	/jointset/ground_pelvis/pelvis_ty/speed	/jointset/hip_l/hip_flexion_l/speed	/jointset/hip_l/hip_adduction_l/speed	/jointset/hip_l/hip_rotation_l/speed	/jointset/back/lumbar_extension/speed	/jointset/patellofemoral_l/patellar_flexion_l/speed	/jointset/knee_l/knee_flexion_l/speed	/jointset/knee_l/knee_adduction_l/speed	/jointset/knee_l/knee_rotation_l/speed	/jointset/ankle_l/ankle_angle_l/speed	/jointset/subtalar_l/subtalar_angle_l/speed	/forceset/tau_hip_flexion_l	/forceset/tau_hip_adduction_l	/forceset/tau_hip_rotation_l	/forceset/tau_knee_flexion_l	/forceset/tau_ankle_angle_l	/forceset/tau_subtalar_angle_l	/forceset/tau_lumbar_extension	lambda_cid13_p0	lambda_cid13_p1	lambda_cid13_p2	lambda_cid13_p3	lambda_cid13_p4	lambda_cid13_p5	lambda_cid14_p0	/jointset/ground_pelvis/pelvis_tilt/accel	/jointset/ground_pelvis/pelvis_tx/accel	/jointset/ground_pelvis/pelvis_ty/accel	/jointset/hip_l/hip_flexion_l/accel	/jointset/hip_l/hip_adduction_l/accel	/jointset/hip_l/hip_rotation_l/accel	/jointset/back/lumbar_extension/accel	/jointset/patellofemoral_l/patellar_flexion_l/accel	/jointset/knee_l/knee_flexion_l/accel	/jointset/knee_l/knee_adduction_l/accel	/jointset/knee_l/knee_rotation_l/accel	/jointset/ankle_l/ankle_angle_l/accel	/jointset/subtalar_l/subtalar_angle_l/accel	gamma_cid13_p0	gamma_cid13_p1	gamma_cid13_p2	gamma_cid13_p3	gamma_cid13_p4	gamma_cid13_p5	gamma_cid14_p0
1	-0.45963734031579	-0.0612221769785905	0.586136587369416	1.808407049920272	-0.2718172610151528	0.2254604394071366	-0.4363309979778432	1.428514519098516	1.428514519098518	-0.1744813722127232	0.17453240783892	0.2964357754068817	0.04572342458536272	-0.01081200817906443	0.0003677032245421666	-0.003958694294682003	0.01859155148445329	0.001001489497244147	0.003468330084810709	-2.390371709489406e-05	0.009190398558038217	0.009190398558037086	7.468643849733515e-05	1.794490916892223e-06	0.001905911582867877	0.001753751492827724	-0.3402554528068655	0.001174713792860563	-0.01226766963464155	-0.3672308583107535	0.05949376353536013	0.01690897030677556	0.3013679976840813	-27.27358364790495	-1.409683176565809	-1.500934884613285	17.35663451556808	-731.3736750235407	-56.59353473671086	-0.03915039918553068	1.104852463088899	-0.02367097244531275	1.844198600219339	-5.842692515709796	-0.62172038732257	-2.104620636381995	-0.01002843277302185	-5.595309761639166	-5.595309761640634	-0.06881746225825795	0.0180595552959026	-1.16107378574472	-1.084305087585907	-9.6186713270498e-10	2.461911242668751e-10	-9.824344903990202e-09	1.823291646878351e-09	8.369602595535548e-10	-8.009516924296945e-09	1.845809957131167e-09
1.01	-0.4596905580363892	-0.06121967957954354	0.5861891454670519	1.808301279172305	-0.2718374804850571	0.2253878551790192	-0.436331250695903	1.428326931546853	1.428326931546855	-0.1744808573594103	0.1745324329302549	0.296397088506992	0.04568800075069912	0.0001749736759798673	0.0001344798627039708	0.01447145914469565	-0.03975667701656286	-0.00504369514520076	-0.01798345967380062	-2.537957733461098e-05	-0.04671270625131983	-0.04671270625132457	2.651995123280409e-05	3.034171592888751e-06	-0.009644298230913447	-0.008835336633505704	-0.3403134736772733	0.001210848635027949	-0.01229300622378677	-0.3671493789385594	0.05951730725991764	0.01693523280954937	0.3014291289911891	-27.26250712200851	-1.4265959169248	-1.494163454324327	17.29876003348695	-731.3739740409948	-56.60702194913758	-0.03916168122300895	1.096597853032369	-0.02274068117734281	1.842593499727017	-5.83253431939122	-0.5956710223796011	-2.16520702984347	0.004981884963319222	-5.588528822480376	-5.588528822479914	0.02691552426128749	-0.008883023112157789	-1.152144837988134	-1.045738381211658	-3.296871771226997e-09	-3.806275644631481e-09	4.62373400864425e-08	9.15196141215747e-09	-9.963375386085909e-09	3.444716182438726e-08	-8.011527829222833e-09
1.02	-0.4596337105771741	-0.06121943294673982	0.5864260390558677	1.80761169687891	-0.2719181025053205	0.225100803276467	-0.4363314803630412	1.427580169350718	1.427580169350718	-0.1744808778177259	0.1745324625788834	0.296242869457206	0.04554678049356128	0.01120102778383126	-8.245002410572623e-05	0.03290840394127538	-0.09817075760132692	-0.01107902057461168	-0.03942520480212289	-1.929353306339834e-05	-0.1026445303365282	-0.1026445303365258	-3.237588715806603e-05	2.705949644632926e-06	-0.02120051839642657	-0.01940553300202309	-0.34037149454768	0.001246983477195203	-0.01231834281293062	-0.3670678995663654	0.05954085098447493	0.01696149531232293	0.301490260298298	-27.2595836121792	-1.440844823060518	-1.489229095469451	17.291658745997	-731.4754252299955	-56.56672135118546	-0.03916599320202779	1.112666913650316	-0.02041227743961298	1.845556871659753	-5.855862932459379	-0.6197485447157729	-2.10261171032418	-0.008516051870833978	-5.601053616809245	-5.601053616808541	-0.07096333248352615	0.01774597477105137	-1.162275856091079	-1.080526736022697	-5.302446861392218e-09	-7.986009475925372e-09	1.019193441048555e-07	1.541154421116991e-08	-2.026280148374428e-08	7.653378462294757e-08	-1.79001230658307e-08
1.03	-0.459466421954896	-0.06122124800972269	0.5868472383153708	1.806337878069419	-0.272058951834376	0.2245994668009695	-0.436331630727518	1.426274116647967	1.426274116647992	-0.1744815106953438	0.17453248680265	0.2959730054329311	0.04530006583153906	0.02226181983899762	-0.000275273486736711	0.05132289947648427	-0.1565809403075474	-0.01708124574892131	-0.06083337804182372	-1.158677148485893e-05	-0.1585538478581839	-0.1585538478581822	-9.14341409685535e-05	2.338240550656974e-06	-0.03277847048001679	-0.02992256908790829	-0.3400332157030993	0.001282734127887107	-0.01240282636265251	-0.3668270206879077	0.05983340769484408	0.01706249974919332	0.3012722572304494	-27.13714730409708	-1.519831652722691	-1.461007161527911	17.14465929209847	-731.1464359733213	-56.5933165779601	-0.03919708563539959	1.103554759865346	-0.01791964790018465	1.838107448208096	-5.831786204475883	-0.5890427528805529	-2.158634583529624	0.005292928796900653	-5.58404084876936	-5.584040848769907	0.02702570343187302	-0.008934840805761528	-1.156479283764871	-1.035084649447125	-7.304660425553796e-09	-1.21670419507131e-08	1.575974738276357e-07	2.166021795950615e-08	-3.055711625948448e-08	1.186166313403842e-07	-2.778903725601258e-08
